# Rhino

mtllib omega.mtl
usemtl diffuse_0_0_0_255
v 0 0 -35
v 0 125 -35
v 29.823223114013672 0 -35
v 29.823223114013672 125 -35
v 29.823223114013672 0 -35
v 29.823223114013672 125 -35
v 37.323223114013672 0 -42.5
v 37.323223114013672 125 -42.5
v 37.323223114013672 0 -42.5
v 37.323223114013672 125 -42.5
v 0 0 -42.5
v 0 125 -42.5
v -37.323223114013672 0 -42.5
v -37.323223114013672 125 -42.5
v -37.323223114013672 0 -42.5
v -37.323223114013672 125 -42.5
v -29.823223114013672 0 -35
v -29.823223114013672 125 -35
v -29.823223114013672 0 -35
v -29.823223114013672 125 -35
v 0 0 -35
v 0 125 -35
v 0 0 -35
v 29.823223114013672 0 -35
v 37.323223114013672 0 -42.5
v 0 0 -42.5
v -37.323223114013672 0 -42.5
v -29.823223114013672 0 -35
v 0 125 -35
v 29.823223114013672 125 -35
v 37.323223114013672 125 -42.5
v 0 125 -42.5
v -37.323223114013672 125 -42.5
v -29.823223114013672 125 -35
vt 0 0
vt 0 0.94642770290374756
vt 0.1666666716337204 0
vt 0.1666666716337204 0.94642770290374756
vt 0.1666666716337204 0
vt 0.1666666716337204 0.94642770290374756
vt 0.3333333432674408 0
vt 0.3333333432674408 0.94642770290374756
vt 0.3333333432674408 0
vt 0.3333333432674408 0.94642770290374756
vt 0.5 0
vt 0.5 0.94642770290374756
vt 0.66666668653488159 0
vt 0.66666668653488159 0.94642770290374756
vt 0.66666668653488159 0
vt 0.66666668653488159 0.94642770290374756
vt 0.83333331346511841 0
vt 0.83333331346511841 0.94642770290374756
vt 0.83333331346511841 0
vt 0.83333331346511841 0.94642770290374756
vt 1 0
vt 1 0.94642770290374756
vt 0.24001131951808929 0.94642859697341919
vt 0.048229619860649109 0.94642859697341919
vt 0 1
vt 0.24001131951808929 1
vt 0.48002263903617859 1
vt 0.43179300427436829 0.94642859697341919
vt 0.24001131951808929 1
vt 0.048229619860649109 1
vt 0 0.94642859697341919
vt 0.24001131951808929 0.94642859697341919
vt 0.48002263903617859 0.94642859697341919
vt 0.43179300427436829 1
vn 0 0 1
vn 0 0 1
vn 0 0 1
vn 0 0 1
vn 0.70710676908493042 0 0.70710676908493042
vn 0.70710676908493042 0 0.70710676908493042
vn 0.70710676908493042 0 0.70710676908493042
vn 0.70710676908493042 0 0.70710676908493042
vn 0 0 -1
vn 0 0 -1
vn 0 0 -1
vn 0 0 -1
vn 0 0 -1
vn 0 0 -1
vn -0.70710676908493042 0 0.70710676908493042
vn -0.70710676908493042 0 0.70710676908493042
vn -0.70710676908493042 0 0.70710676908493042
vn -0.70710676908493042 0 0.70710676908493042
vn 0 0 1
vn 0 0 1
vn 0 0 1
vn 0 0 1
vn 0 -1 0
vn 0 -1 0
vn 0 -1 0
vn 0 -1 0
vn 0 -1 0
vn 0 -1 0
vn 0 1 0
vn 0 1 0
vn 0 1 0
vn 0 1 0
vn 0 1 0
vn 0 1 0
f 9/9/9 11/11/11 13/13/13 14/14/14 12/12/12 10/10/10
f 26/26/26 25/25/25 24/24/24 23/23/23 28/28/28 27/27/27
f 30/30/30 31/31/31 32/32/32 33/33/33 34/34/34 29/29/29
f 1/1/1 3/3/3 4/4/4 2/2/2
f 5/5/5 7/7/7 8/8/8 6/6/6
f 15/15/15 17/17/17 18/18/18 16/16/16
f 19/19/19 21/21/21 22/22/22 20/20/20
usemtl diffuse_0_0_0_255
v 30.530330657958984 0 42.5
v 30.530330657958984 125 42.5
v 80.176773071289063 0 42.5
v 80.176773071289063 125 42.5
v 80.176773071289063 0 42.5
v 80.176773071289063 125 42.5
v 80.176773071289063 0 35
v 80.176773071289063 125 35
v 80.176773071289063 0 35
v 80.176773071289063 125 35
v 38.030330657958984 0 35
v 38.030330657958984 125 35
v 38.030330657958984 0 35
v 38.030330657958984 125 35
v 30.530330657958984 0 42.5
v 30.530330657958984 125 42.5
v 30.530330657958984 0 42.5
v 80.176773071289063 0 42.5
v 80.176773071289063 0 35
v 38.030330657958984 0 35
v 30.530330657958984 125 42.5
v 80.176773071289063 125 42.5
v 80.176773071289063 125 35
v 38.030330657958984 125 35
vt 0 0
vt 0 1
vt 0.23498770594596863 0
vt 0.23498770594596863 1
vt 0.23498770594596863 0
vt 0.23498770594596863 1
vt 0.46997541189193726 0
vt 0.46997541189193726 1
vt 0.46997541189193726 0
vt 0.46997541189193726 1
vt 0.70496314764022827 0
vt 0.70496314764022827 1
vt 0.70496314764022827 0
vt 0.70496314764022827 1
vt 0.93995082378387451 0
vt 0.93995082378387451 1
vt 0.93995177745819092 0
vt 0.93995177745819092 0.39717158675193787
vt 1 0.39717158675193787
vt 1 0.059999998658895493
vt 0.93995177745819092 1
vt 0.93995177745819092 0.60282844305038452
vt 1 0.60282844305038452
vt 1 0.93999999761581421
vn 0 0 1
vn 0 0 1
vn 0 0 1
vn 0 0 1
vn 1 0 0
vn 1 0 0
vn 1 0 0
vn 1 0 0
vn 0 0 -1
vn 0 0 -1
vn 0 0 -1
vn 0 0 -1
vn -0.70710676908493042 0 -0.70710676908493042
vn -0.70710676908493042 0 -0.70710676908493042
vn -0.70710676908493042 0 -0.70710676908493042
vn -0.70710676908493042 0 -0.70710676908493042
vn 0 -1 0
vn 0 -1 0
vn 0 -1 0
vn 0 -1 0
vn 0 1 0
vn 0 1 0
vn 0 1 0
vn 0 1 0
f 54/54/54 53/53/53 52/52/52 51/51/51
f 56/56/56 57/57/57 58/58/58 55/55/55
f 35/35/35 37/37/37 38/38/38 36/36/36
f 39/39/39 41/41/41 42/42/42 40/40/40
f 43/43/43 45/45/45 46/46/46 44/44/44
f 47/47/47 49/49/49 50/50/50 48/48/48
usemtl diffuse_0_0_0_255
v -37.676776885986328 0 -42.146446228027344
v -37.676776885986328 125 -42.146446228027344
v -37.676776885986328 0 34.646446228027344
v -37.676776885986328 125 34.646446228027344
v -37.676776885986328 0 34.646446228027344
v -37.676776885986328 125 34.646446228027344
v -30.176776885986328 0 42.146446228027344
v -30.176776885986328 125 42.146446228027344
v -30.176776885986328 0 42.146446228027344
v -30.176776885986328 125 42.146446228027344
v -30.176776885986328 0 -34.646446228027344
v -30.176776885986328 125 -34.646446228027344
v -30.176776885986328 0 -34.646446228027344
v -30.176776885986328 125 -34.646446228027344
v -37.676776885986328 0 -42.146446228027344
v -37.676776885986328 125 -42.146446228027344
v -37.676776885986328 0 -42.146446228027344
v -37.676776885986328 0 34.646446228027344
v -30.176776885986328 0 42.146446228027344
v -30.176776885986328 0 -34.646446228027344
v -37.676776885986328 125 -42.146446228027344
v -37.676776885986328 125 34.646446228027344
v -30.176776885986328 125 42.146446228027344
v -30.176776885986328 125 -34.646446228027344
vt 0 0
vt 0 0.94642770290374756
vt 0.25 0
vt 0.25 0.94642770290374756
vt 0.25 0
vt 0.25 0.94642770290374756
vt 0.5 0
vt 0.5 0.94642770290374756
vt 0.5 0
vt 0.5 0.94642770290374756
vt 0.75 0
vt 0.75 0.94642770290374756
vt 0.75 0
vt 0.75 0.94642770290374756
vt 1 0
vt 1 0.94642770290374756
vt 0.48222756385803223 0.94642859697341919
vt 0.042906425893306732 0.94642859697341919
vt 0 1
vt 0.43932116031646729 1
vt 1 1
vt 0.56067883968353271 1
vt 0.51777243614196777 0.94642859697341919
vt 0.95709359645843506 0.94642859697341919
vn -1 0 0
vn -1 0 0
vn -1 0 0
vn -1 0 0
vn -0.70710676908493042 0 0.70710676908493042
vn -0.70710676908493042 0 0.70710676908493042
vn -0.70710676908493042 0 0.70710676908493042
vn -0.70710676908493042 0 0.70710676908493042
vn 1 0 0
vn 1 0 0
vn 1 0 0
vn 1 0 0
vn 0.70710676908493042 0 -0.70710676908493042
vn 0.70710676908493042 0 -0.70710676908493042
vn 0.70710676908493042 0 -0.70710676908493042
vn 0.70710676908493042 0 -0.70710676908493042
vn 0 -1 0
vn 0 -1 0
vn 0 -1 0
vn 0 -1 0
vn 0 1 0
vn 0 1 0
vn 0 1 0
vn 0 1 0
f 78/78/78 77/77/77 76/76/76 75/75/75
f 80/80/80 81/81/81 82/82/82 79/79/79
f 59/59/59 61/61/61 62/62/62 60/60/60
f 63/63/63 65/65/65 66/66/66 64/64/64
f 67/67/67 69/69/69 70/70/70 68/68/68
f 71/71/71 73/73/73 74/74/74 72/72/72
usemtl diffuse_0_0_0_255
v 37.676776885986328 0 -42.146446228027344
v 37.676776885986328 125 -42.146446228027344
v 30.176776885986328 0 -34.646446228027344
v 30.176776885986328 125 -34.646446228027344
v 30.176776885986328 0 -34.646446228027344
v 30.176776885986328 125 -34.646446228027344
v 30.176776885986328 0 42.146446228027344
v 30.176776885986328 125 42.146446228027344
v 30.176776885986328 0 42.146446228027344
v 30.176776885986328 125 42.146446228027344
v 37.676776885986328 0 34.646446228027344
v 37.676776885986328 125 34.646446228027344
v 37.676776885986328 0 34.646446228027344
v 37.676776885986328 125 34.646446228027344
v 37.676776885986328 0 -42.146446228027344
v 37.676776885986328 125 -42.146446228027344
v 37.676776885986328 0 -42.146446228027344
v 30.176776885986328 0 -34.646446228027344
v 30.176776885986328 0 42.146446228027344
v 37.676776885986328 0 34.646446228027344
v 37.676776885986328 125 -42.146446228027344
v 30.176776885986328 125 -34.646446228027344
v 30.176776885986328 125 42.146446228027344
v 37.676776885986328 125 34.646446228027344
vt 0 0
vt 0 0.94642770290374756
vt 0.25 0
vt 0.25 0.94642770290374756
vt 0.25 0
vt 0.25 0.94642770290374756
vt 0.5 0
vt 0.5 0.94642770290374756
vt 0.5 0
vt 0.5 0.94642770290374756
vt 0.75 0
vt 0.75 0.94642770290374756
vt 0.75 0
vt 0.75 0.94642770290374756
vt 1 0
vt 1 0.94642770290374756
vt 0 0.94642859697341919
vt 0.042906425893306732 1
vt 0.48222756385803223 1
vt 0.43932116031646729 0.94642859697341919
vt 0.51777243614196777 1
vt 0.56067883968353271 0.94642859697341919
vt 1 0.94642859697341919
vt 0.95709359645843506 1
vn -0.70710676908493042 0 -0.70710676908493042
vn -0.70710676908493042 0 -0.70710676908493042
vn -0.70710676908493042 0 -0.70710676908493042
vn -0.70710676908493042 0 -0.70710676908493042
vn -1 0 0
vn -1 0 0
vn -1 0 0
vn -1 0 0
vn 0.70710676908493042 0 0.70710676908493042
vn 0.70710676908493042 0 0.70710676908493042
vn 0.70710676908493042 0 0.70710676908493042
vn 0.70710676908493042 0 0.70710676908493042
vn 1 0 0
vn 1 0 0
vn 1 0 0
vn 1 0 0
vn 0 -1 0
vn 0 -1 0
vn 0 -1 0
vn 0 -1 0
vn 0 1 0
vn 0 1 0
vn 0 1 0
vn 0 1 0
f 102/102/102 101/101/101 100/100/100 99/99/99
f 104/104/104 105/105/105 106/106/106 103/103/103
f 83/83/83 85/85/85 86/86/86 84/84/84
f 87/87/87 89/89/89 90/90/90 88/88/88
f 91/91/91 93/93/93 94/94/94 92/92/92
f 95/95/95 97/97/97 98/98/98 96/96/96
usemtl diffuse_0_0_0_255
v -30.530330657958984 0 42.5
v -30.530330657958984 125 42.5
v -38.030330657958984 0 35
v -38.030330657958984 125 35
v -38.030330657958984 0 35
v -38.030330657958984 125 35
v -80.176773071289063 0 35
v -80.176773071289063 125 35
v -80.176773071289063 0 35
v -80.176773071289063 125 35
v -80.176773071289063 0 42.5
v -80.176773071289063 125 42.5
v -80.176773071289063 0 42.5
v -80.176773071289063 125 42.5
v -30.530330657958984 0 42.5
v -30.530330657958984 125 42.5
v -30.530330657958984 0 42.5
v -38.030330657958984 0 35
v -80.176773071289063 0 35
v -80.176773071289063 0 42.5
v -30.530330657958984 125 42.5
v -38.030330657958984 125 35
v -80.176773071289063 125 35
v -80.176773071289063 125 42.5
vt 0 0
vt 0 1
vt 0.23498770594596863 0
vt 0.23498770594596863 1
vt 0.23498770594596863 0
vt 0.23498770594596863 1
vt 0.46997541189193726 0
vt 0.46997541189193726 1
vt 0.46997541189193726 0
vt 0.46997541189193726 1
vt 0.70496314764022827 0
vt 0.70496314764022827 1
vt 0.70496314764022827 0
vt 0.70496314764022827 1
vt 0.93995082378387451 0
vt 0.93995082378387451 1
vt 1 0
vt 0.93995177745819092 0.059999998658895493
vt 0.93995177745819092 0.39717158675193787
vt 1 0.39717158675193787
vt 1 1
vt 0.93995177745819092 0.93999999761581421
vt 0.93995177745819092 0.60282844305038452
vt 1 0.60282844305038452
vn 0.70710676908493042 0 -0.70710676908493042
vn 0.70710676908493042 0 -0.70710676908493042
vn 0.70710676908493042 0 -0.70710676908493042
vn 0.70710676908493042 0 -0.70710676908493042
vn 0 0 -1
vn 0 0 -1
vn 0 0 -1
vn 0 0 -1
vn -1 0 0
vn -1 0 0
vn -1 0 0
vn -1 0 0
vn 0 0 1
vn 0 0 1
vn 0 0 1
vn 0 0 1
vn 0 -1 0
vn 0 -1 0
vn 0 -1 0
vn 0 -1 0
vn 0 1 0
vn 0 1 0
vn 0 1 0
vn 0 1 0
f 126/126/126 125/125/125 124/124/124 123/123/123
f 128/128/128 129/129/129 130/130/130 127/127/127
f 107/107/107 109/109/109 110/110/110 108/108/108
f 111/111/111 113/113/113 114/114/114 112/112/112
f 115/115/115 117/117/117 118/118/118 116/116/116
f 119/119/119 121/121/121 122/122/122 120/120/120
